# MagicaVoxel @ Ephtracy

# group
o 

# material
mtllib CO2.mtl
usemtl palette

# normals
vn -1 0 0
vn 1 0 0
vn 0 0 1
vn 0 0 -1
vn 0 -1 0
vn 0 1 0

# texcoords
vt 0.970703 0.5
vt 0.994141 0.5

# verts
v 5.3 7.2 -3.1
v 5.3 7.2 -3.7
v 5.3 7.2 -4.3
v 5.3 7.2 -4.6
v 5.3 7.2 -5
v 5.3 7.2 -5.5
v 5.3 7.3 -3.1
v 5.3 7.3 -3.7
v 5.3 7.3 -4.3
v 5.3 7.3 -4.6
v 5.3 7.3 -5
v 5.3 7.3 -5.1
v 5.3 7.3 -5.2
v 5.3 7.3 -5.5
v 5.3 7.4 -3
v 5.3 7.4 -3.2
v 5.3 7.4 -4.1
v 5.3 7.4 -4.2
v 5.3 7.4 -4.7
v 5.3 7.4 -4.8
v 5.3 7.4 -5.1
v 5.3 7.4 -5.2
v 5.3 7.4 -5.3
v 5.3 7.5 -3
v 5.3 7.5 -3.2
v 5.3 7.5 -4.1
v 5.3 7.5 -4.2
v 5.3 7.5 -4.7
v 5.3 7.5 -4.8
v 5.3 7.5 -5.2
v 5.3 7.5 -5.3
v 5.3 7.5 -5.4
v 5.3 7.6 -3
v 5.3 7.6 -3.2
v 5.3 7.6 -4.1
v 5.3 7.6 -4.2
v 5.3 7.6 -4.7
v 5.3 7.6 -4.8
v 5.3 7.6 -5
v 5.3 7.6 -5.1
v 5.3 7.6 -5.3
v 5.3 7.6 -5.4
v 5.3 7.6 -5.5
v 5.3 7.7 -3
v 5.3 7.7 -3.2
v 5.3 7.7 -4.1
v 5.3 7.7 -4.2
v 5.3 7.7 -4.7
v 5.3 7.7 -4.8
v 5.3 7.8 -3
v 5.3 7.8 -3.2
v 5.3 7.8 -4.1
v 5.3 7.8 -4.2
v 5.3 7.8 -4.7
v 5.3 7.8 -4.8
v 5.3 7.8 -5
v 5.3 7.8 -5.1
v 5.3 7.8 -5.4
v 5.3 7.8 -5.5
v 5.3 7.9 -3
v 5.3 7.9 -3.2
v 5.3 7.9 -4.1
v 5.3 7.9 -4.2
v 5.3 7.9 -4.7
v 5.3 7.9 -4.8
v 5.3 7.9 -5.1
v 5.3 7.9 -5.4
v 5.3 8 -3.1
v 5.3 8 -3.6
v 5.3 8 -4.3
v 5.3 8 -4.6
v 5.3 8.1 -3.1
v 5.3 8.1 -3.6
v 5.3 8.1 -4.3
v 5.3 8.1 -4.6
v 5.4 2 -5.1
v 5.4 2 -5.2
v 5.4 2.1 -5.1
v 5.4 2.1 -5.2
v 5.4 7.3 -5.4
v 5.4 7.3 -5.5
v 5.4 7.4 -5.4
v 5.4 7.4 -5.5
v 5.5 7.2 -5.1
v 5.5 7.2 -5.2
v 5.5 7.3 -5.1
v 5.5 7.3 -5.2
v 5.4 7.2 -5.1
v 5.4 7.2 -5.2
v 5.4 7.3 -5.1
v 5.4 7.3 -5.2
v 5.5 2 -5.1
v 5.5 2 -5.2
v 5.5 2.1 -5.1
v 5.5 2.1 -5.2
v 5.6 7.2 -3.1
v 5.6 7.2 -3.7
v 5.6 7.2 -4.3
v 5.6 7.2 -4.6
v 5.6 7.2 -5
v 5.6 7.2 -5.5
v 5.6 7.3 -3.1
v 5.6 7.3 -3.7
v 5.6 7.3 -4.3
v 5.6 7.3 -4.6
v 5.6 7.3 -5
v 5.6 7.3 -5.1
v 5.6 7.3 -5.2
v 5.6 7.3 -5.4
v 5.6 7.4 -3
v 5.6 7.4 -3.2
v 5.6 7.4 -4.1
v 5.6 7.4 -4.2
v 5.6 7.4 -4.7
v 5.6 7.4 -4.8
v 5.6 7.4 -5.1
v 5.6 7.4 -5.2
v 5.6 7.4 -5.3
v 5.6 7.4 -5.4
v 5.6 7.4 -5.5
v 5.6 7.5 -3
v 5.6 7.5 -3.2
v 5.6 7.5 -4.1
v 5.6 7.5 -4.2
v 5.6 7.5 -4.7
v 5.6 7.5 -4.8
v 5.6 7.5 -5.2
v 5.6 7.5 -5.3
v 5.6 7.5 -5.4
v 5.6 7.6 -3
v 5.6 7.6 -3.2
v 5.6 7.6 -4.1
v 5.6 7.6 -4.2
v 5.6 7.6 -4.7
v 5.6 7.6 -4.8
v 5.6 7.6 -5
v 5.6 7.6 -5.1
v 5.6 7.6 -5.3
v 5.6 7.6 -5.4
v 5.6 7.6 -5.5
v 5.6 7.7 -3
v 5.6 7.7 -3.2
v 5.6 7.7 -4.1
v 5.6 7.7 -4.2
v 5.6 7.7 -4.7
v 5.6 7.7 -4.8
v 5.6 7.8 -3
v 5.6 7.8 -3.2
v 5.6 7.8 -4.1
v 5.6 7.8 -4.2
v 5.6 7.8 -4.7
v 5.6 7.8 -4.8
v 5.6 7.8 -5
v 5.6 7.8 -5.1
v 5.6 7.8 -5.4
v 5.6 7.8 -5.5
v 5.6 7.9 -3
v 5.6 7.9 -3.2
v 5.6 7.9 -4.1
v 5.6 7.9 -4.2
v 5.6 7.9 -4.7
v 5.6 7.9 -4.8
v 5.6 7.9 -5.1
v 5.6 7.9 -5.4
v 5.6 8 -3.1
v 5.6 8 -3.6
v 5.6 8 -4.3
v 5.6 8 -4.6
v 5.6 8.1 -3.1
v 5.6 8.1 -3.6
v 5.6 8.1 -4.3
v 5.6 8.1 -4.6
v 5.3 7.4 -3
v 5.3 7.5 -3
v 5.3 7.6 -3
v 5.3 7.7 -3
v 5.3 7.8 -3
v 5.3 7.9 -3
v 5.6 7.4 -3
v 5.6 7.5 -3
v 5.6 7.6 -3
v 5.6 7.7 -3
v 5.6 7.8 -3
v 5.6 7.9 -3
v 5.3 7.2 -3.1
v 5.3 7.3 -3.1
v 5.3 8 -3.1
v 5.3 8.1 -3.1
v 5.6 7.2 -3.1
v 5.6 7.3 -3.1
v 5.6 8 -3.1
v 5.6 8.1 -3.1
v 5.3 7.4 -4.1
v 5.3 7.5 -4.1
v 5.3 7.6 -4.1
v 5.3 7.7 -4.1
v 5.3 7.8 -4.1
v 5.3 7.9 -4.1
v 5.6 7.4 -4.1
v 5.6 7.5 -4.1
v 5.6 7.6 -4.1
v 5.6 7.7 -4.1
v 5.6 7.8 -4.1
v 5.6 7.9 -4.1
v 5.3 7.2 -4.3
v 5.3 7.3 -4.3
v 5.3 8 -4.3
v 5.3 8.1 -4.3
v 5.6 7.2 -4.3
v 5.6 7.3 -4.3
v 5.6 8 -4.3
v 5.6 8.1 -4.3
v 5.3 7.4 -4.7
v 5.3 7.5 -4.7
v 5.3 7.6 -4.7
v 5.3 7.7 -4.7
v 5.3 7.8 -4.7
v 5.3 7.9 -4.7
v 5.6 7.4 -4.7
v 5.6 7.5 -4.7
v 5.6 7.6 -4.7
v 5.6 7.7 -4.7
v 5.6 7.8 -4.7
v 5.6 7.9 -4.7
v 5.3 7.2 -5
v 5.3 7.3 -5
v 5.3 7.6 -5
v 5.3 7.8 -5
v 5.6 7.2 -5
v 5.6 7.3 -5
v 5.6 7.6 -5
v 5.6 7.8 -5
v 5.3 7.3 -5.1
v 5.3 7.4 -5.1
v 5.3 7.8 -5.1
v 5.3 7.9 -5.1
v 5.4 2 -5.1
v 5.4 2.1 -5.1
v 5.5 2 -5.1
v 5.5 2.1 -5.1
v 5.6 7.3 -5.1
v 5.6 7.4 -5.1
v 5.6 7.8 -5.1
v 5.6 7.9 -5.1
v 5.3 7.4 -5.2
v 5.3 7.5 -5.2
v 5.4 7.2 -5.2
v 5.4 7.3 -5.2
v 5.5 7.2 -5.2
v 5.5 7.3 -5.2
v 5.6 7.4 -5.2
v 5.6 7.5 -5.2
v 5.3 7.5 -5.3
v 5.3 7.6 -5.3
v 5.6 7.5 -5.3
v 5.6 7.6 -5.3
v 5.3 7.6 -5.4
v 5.3 7.8 -5.4
v 5.4 7.3 -5.4
v 5.4 7.4 -5.4
v 5.6 7.3 -5.4
v 5.6 7.4 -5.4
v 5.6 7.6 -5.4
v 5.6 7.8 -5.4
v 5.3 7.4 -3.2
v 5.3 7.5 -3.2
v 5.3 7.6 -3.2
v 5.3 7.7 -3.2
v 5.3 7.8 -3.2
v 5.3 7.9 -3.2
v 5.6 7.4 -3.2
v 5.6 7.5 -3.2
v 5.6 7.6 -3.2
v 5.6 7.7 -3.2
v 5.6 7.8 -3.2
v 5.6 7.9 -3.2
v 5.3 8 -3.6
v 5.3 8.1 -3.6
v 5.6 8 -3.6
v 5.6 8.1 -3.6
v 5.3 7.2 -3.7
v 5.3 7.3 -3.7
v 5.6 7.2 -3.7
v 5.6 7.3 -3.7
v 5.3 7.4 -4.2
v 5.3 7.5 -4.2
v 5.3 7.6 -4.2
v 5.3 7.7 -4.2
v 5.3 7.8 -4.2
v 5.3 7.9 -4.2
v 5.6 7.4 -4.2
v 5.6 7.5 -4.2
v 5.6 7.6 -4.2
v 5.6 7.7 -4.2
v 5.6 7.8 -4.2
v 5.6 7.9 -4.2
v 5.3 7.2 -4.6
v 5.3 7.3 -4.6
v 5.3 8 -4.6
v 5.3 8.1 -4.6
v 5.6 7.2 -4.6
v 5.6 7.3 -4.6
v 5.6 8 -4.6
v 5.6 8.1 -4.6
v 5.3 7.4 -4.8
v 5.3 7.5 -4.8
v 5.3 7.6 -4.8
v 5.3 7.7 -4.8
v 5.3 7.8 -4.8
v 5.3 7.9 -4.8
v 5.6 7.4 -4.8
v 5.6 7.5 -4.8
v 5.6 7.6 -4.8
v 5.6 7.7 -4.8
v 5.6 7.8 -4.8
v 5.6 7.9 -4.8
v 5.3 7.6 -5.1
v 5.3 7.8 -5.1
v 5.4 7.2 -5.1
v 5.4 7.3 -5.1
v 5.5 7.2 -5.1
v 5.5 7.3 -5.1
v 5.6 7.6 -5.1
v 5.6 7.8 -5.1
v 5.3 7.3 -5.2
v 5.3 7.4 -5.2
v 5.4 2 -5.2
v 5.4 2.1 -5.2
v 5.5 2 -5.2
v 5.5 2.1 -5.2
v 5.6 7.3 -5.2
v 5.6 7.4 -5.2
v 5.3 7.4 -5.3
v 5.3 7.5 -5.3
v 5.6 7.4 -5.3
v 5.6 7.5 -5.3
v 5.3 7.5 -5.4
v 5.3 7.6 -5.4
v 5.3 7.8 -5.4
v 5.3 7.9 -5.4
v 5.6 7.5 -5.4
v 5.6 7.6 -5.4
v 5.6 7.8 -5.4
v 5.6 7.9 -5.4
v 5.3 7.2 -5.5
v 5.3 7.3 -5.5
v 5.3 7.6 -5.5
v 5.3 7.8 -5.5
v 5.4 7.3 -5.5
v 5.4 7.4 -5.5
v 5.6 7.2 -5.5
v 5.6 7.4 -5.5
v 5.6 7.6 -5.5
v 5.6 7.8 -5.5
v 5.4 2 -5.1
v 5.5 2 -5.1
v 5.4 2 -5.2
v 5.5 2 -5.2
v 5.3 7.2 -3.1
v 5.6 7.2 -3.1
v 5.3 7.2 -3.7
v 5.6 7.2 -3.7
v 5.3 7.2 -4.3
v 5.6 7.2 -4.3
v 5.3 7.2 -4.6
v 5.6 7.2 -4.6
v 5.3 7.2 -5
v 5.6 7.2 -5
v 5.4 7.2 -5.1
v 5.5 7.2 -5.1
v 5.4 7.2 -5.2
v 5.5 7.2 -5.2
v 5.3 7.2 -5.5
v 5.6 7.2 -5.5
v 5.4 7.3 -5.1
v 5.5 7.3 -5.1
v 5.4 7.3 -5.2
v 5.5 7.3 -5.2
v 5.3 7.4 -3
v 5.6 7.4 -3
v 5.3 7.4 -3.2
v 5.6 7.4 -3.2
v 5.3 7.4 -4.1
v 5.6 7.4 -4.1
v 5.3 7.4 -4.2
v 5.6 7.4 -4.2
v 5.3 7.4 -4.7
v 5.6 7.4 -4.7
v 5.3 7.4 -4.8
v 5.6 7.4 -4.8
v 5.3 7.4 -5.2
v 5.6 7.4 -5.2
v 5.3 7.4 -5.3
v 5.6 7.4 -5.3
v 5.3 7.5 -5.3
v 5.6 7.5 -5.3
v 5.3 7.5 -5.4
v 5.6 7.5 -5.4
v 5.3 7.6 -3
v 5.6 7.6 -3
v 5.3 7.6 -3.2
v 5.6 7.6 -3.2
v 5.3 7.6 -4.1
v 5.6 7.6 -4.1
v 5.3 7.6 -4.2
v 5.6 7.6 -4.2
v 5.3 7.6 -4.7
v 5.6 7.6 -4.7
v 5.3 7.6 -4.8
v 5.6 7.6 -4.8
v 5.3 7.6 -5
v 5.6 7.6 -5
v 5.3 7.6 -5.1
v 5.6 7.6 -5.1
v 5.3 7.6 -5.4
v 5.6 7.6 -5.4
v 5.3 7.6 -5.5
v 5.6 7.6 -5.5
v 5.3 7.8 -3
v 5.6 7.8 -3
v 5.3 7.8 -3.2
v 5.6 7.8 -3.2
v 5.3 7.8 -4.1
v 5.6 7.8 -4.1
v 5.3 7.8 -4.2
v 5.6 7.8 -4.2
v 5.3 7.8 -4.7
v 5.6 7.8 -4.7
v 5.3 7.8 -4.8
v 5.6 7.8 -4.8
v 5.3 7.8 -5.1
v 5.6 7.8 -5.1
v 5.3 7.8 -5.4
v 5.6 7.8 -5.4
v 5.3 8 -3.1
v 5.6 8 -3.1
v 5.3 8 -3.6
v 5.6 8 -3.6
v 5.3 8 -4.3
v 5.6 8 -4.3
v 5.3 8 -4.6
v 5.6 8 -4.6
v 5.4 2.1 -5.1
v 5.5 2.1 -5.1
v 5.4 2.1 -5.2
v 5.5 2.1 -5.2
v 5.3 7.3 -3.1
v 5.6 7.3 -3.1
v 5.3 7.3 -3.7
v 5.6 7.3 -3.7
v 5.3 7.3 -4.3
v 5.6 7.3 -4.3
v 5.3 7.3 -4.6
v 5.6 7.3 -4.6
v 5.3 7.3 -5
v 5.6 7.3 -5
v 5.3 7.3 -5.1
v 5.6 7.3 -5.1
v 5.3 7.3 -5.2
v 5.6 7.3 -5.2
v 5.4 7.3 -5.4
v 5.6 7.3 -5.4
v 5.3 7.3 -5.5
v 5.4 7.3 -5.5
v 5.3 7.4 -5.1
v 5.6 7.4 -5.1
v 5.3 7.4 -5.2
v 5.6 7.4 -5.2
v 5.4 7.4 -5.4
v 5.6 7.4 -5.4
v 5.4 7.4 -5.5
v 5.6 7.4 -5.5
v 5.3 7.5 -3
v 5.6 7.5 -3
v 5.3 7.5 -3.2
v 5.6 7.5 -3.2
v 5.3 7.5 -4.1
v 5.6 7.5 -4.1
v 5.3 7.5 -4.2
v 5.6 7.5 -4.2
v 5.3 7.5 -4.7
v 5.6 7.5 -4.7
v 5.3 7.5 -4.8
v 5.6 7.5 -4.8
v 5.3 7.5 -5.2
v 5.6 7.5 -5.2
v 5.3 7.5 -5.3
v 5.6 7.5 -5.3
v 5.3 7.6 -5.3
v 5.6 7.6 -5.3
v 5.3 7.6 -5.4
v 5.6 7.6 -5.4
v 5.3 7.7 -3
v 5.6 7.7 -3
v 5.3 7.7 -3.2
v 5.6 7.7 -3.2
v 5.3 7.7 -4.1
v 5.6 7.7 -4.1
v 5.3 7.7 -4.2
v 5.6 7.7 -4.2
v 5.3 7.7 -4.7
v 5.6 7.7 -4.7
v 5.3 7.7 -4.8
v 5.6 7.7 -4.8
v 5.3 7.8 -5
v 5.6 7.8 -5
v 5.3 7.8 -5.1
v 5.6 7.8 -5.1
v 5.3 7.8 -5.4
v 5.6 7.8 -5.4
v 5.3 7.8 -5.5
v 5.6 7.8 -5.5
v 5.3 7.9 -3
v 5.6 7.9 -3
v 5.3 7.9 -3.2
v 5.6 7.9 -3.2
v 5.3 7.9 -4.1
v 5.6 7.9 -4.1
v 5.3 7.9 -4.2
v 5.6 7.9 -4.2
v 5.3 7.9 -4.7
v 5.6 7.9 -4.7
v 5.3 7.9 -4.8
v 5.6 7.9 -4.8
v 5.3 7.9 -5.1
v 5.6 7.9 -5.1
v 5.3 7.9 -5.4
v 5.6 7.9 -5.4
v 5.3 8.1 -3.1
v 5.6 8.1 -3.1
v 5.3 8.1 -3.6
v 5.6 8.1 -3.6
v 5.3 8.1 -4.3
v 5.6 8.1 -4.3
v 5.3 8.1 -4.6
v 5.6 8.1 -4.6

# faces
f 7/2/1 2/2/1 1/2/1
f 8/2/1 2/2/1 7/2/1
f 9/2/1 4/2/1 3/2/1
f 10/2/1 4/2/1 9/2/1
f 11/2/1 6/2/1 5/2/1
f 12/2/1 6/2/1 11/2/1
f 13/2/1 6/2/1 12/2/1
f 14/2/1 6/2/1 13/2/1
f 21/2/1 13/2/1 12/2/1
f 22/2/1 13/2/1 21/2/1
f 24/2/1 16/2/1 15/2/1
f 25/2/1 16/2/1 24/2/1
f 26/2/1 18/2/1 17/2/1
f 27/2/1 18/2/1 26/2/1
f 28/2/1 20/2/1 19/2/1
f 29/2/1 20/2/1 28/2/1
f 30/2/1 23/2/1 22/2/1
f 31/2/1 23/2/1 30/2/1
f 41/2/1 32/2/1 31/2/1
f 42/2/1 32/2/1 41/2/1
f 44/2/1 34/2/1 33/2/1
f 45/2/1 34/2/1 44/2/1
f 46/2/1 36/2/1 35/2/1
f 47/2/1 36/2/1 46/2/1
f 48/2/1 38/2/1 37/2/1
f 49/2/1 38/2/1 48/2/1
f 56/2/1 40/2/1 39/2/1
f 57/2/1 40/2/1 56/2/1
f 58/2/1 43/2/1 42/2/1
f 59/2/1 43/2/1 58/2/1
f 60/2/1 51/2/1 50/2/1
f 61/2/1 51/2/1 60/2/1
f 62/2/1 53/2/1 52/2/1
f 63/2/1 53/2/1 62/2/1
f 64/2/1 55/2/1 54/2/1
f 65/2/1 55/2/1 64/2/1
f 66/2/1 58/2/1 57/2/1
f 67/2/1 58/2/1 66/2/1
f 72/2/1 69/2/1 68/2/1
f 73/2/1 69/2/1 72/2/1
f 74/2/1 71/2/1 70/2/1
f 75/2/1 71/2/1 74/2/1
f 78/1/1 77/1/1 76/1/1
f 79/1/1 77/1/1 78/1/1
f 82/2/1 81/2/1 80/2/1
f 83/2/1 81/2/1 82/2/1
f 86/2/1 85/2/1 84/2/1
f 87/2/1 85/2/1 86/2/1
f 88/2/2 89/2/2 90/2/2
f 90/2/2 89/2/2 91/2/2
f 92/1/2 93/1/2 94/1/2
f 94/1/2 93/1/2 95/1/2
f 96/2/2 97/2/2 102/2/2
f 102/2/2 97/2/2 103/2/2
f 98/2/2 99/2/2 104/2/2
f 104/2/2 99/2/2 105/2/2
f 100/2/2 101/2/2 106/2/2
f 106/2/2 101/2/2 107/2/2
f 107/2/2 101/2/2 108/2/2
f 108/2/2 101/2/2 109/2/2
f 107/2/2 108/2/2 116/2/2
f 116/2/2 108/2/2 117/2/2
f 109/2/2 101/2/2 119/2/2
f 119/2/2 101/2/2 120/2/2
f 110/2/2 111/2/2 121/2/2
f 121/2/2 111/2/2 122/2/2
f 112/2/2 113/2/2 123/2/2
f 123/2/2 113/2/2 124/2/2
f 114/2/2 115/2/2 125/2/2
f 125/2/2 115/2/2 126/2/2
f 117/2/2 118/2/2 127/2/2
f 127/2/2 118/2/2 128/2/2
f 128/2/2 129/2/2 138/2/2
f 138/2/2 129/2/2 139/2/2
f 130/2/2 131/2/2 141/2/2
f 141/2/2 131/2/2 142/2/2
f 132/2/2 133/2/2 143/2/2
f 143/2/2 133/2/2 144/2/2
f 134/2/2 135/2/2 145/2/2
f 145/2/2 135/2/2 146/2/2
f 136/2/2 137/2/2 153/2/2
f 153/2/2 137/2/2 154/2/2
f 139/2/2 140/2/2 155/2/2
f 155/2/2 140/2/2 156/2/2
f 147/2/2 148/2/2 157/2/2
f 157/2/2 148/2/2 158/2/2
f 149/2/2 150/2/2 159/2/2
f 159/2/2 150/2/2 160/2/2
f 151/2/2 152/2/2 161/2/2
f 161/2/2 152/2/2 162/2/2
f 154/2/2 155/2/2 163/2/2
f 163/2/2 155/2/2 164/2/2
f 165/2/2 166/2/2 169/2/2
f 169/2/2 166/2/2 170/2/2
f 167/2/2 168/2/2 171/2/2
f 171/2/2 168/2/2 172/2/2
f 179/2/3 174/2/3 173/2/3
f 180/2/3 174/2/3 179/2/3
f 181/2/3 176/2/3 175/2/3
f 182/2/3 176/2/3 181/2/3
f 183/2/3 178/2/3 177/2/3
f 184/2/3 178/2/3 183/2/3
f 189/2/3 186/2/3 185/2/3
f 190/2/3 186/2/3 189/2/3
f 191/2/3 188/2/3 187/2/3
f 192/2/3 188/2/3 191/2/3
f 199/2/3 194/2/3 193/2/3
f 200/2/3 194/2/3 199/2/3
f 201/2/3 196/2/3 195/2/3
f 202/2/3 196/2/3 201/2/3
f 203/2/3 198/2/3 197/2/3
f 204/2/3 198/2/3 203/2/3
f 209/2/3 206/2/3 205/2/3
f 210/2/3 206/2/3 209/2/3
f 211/2/3 208/2/3 207/2/3
f 212/2/3 208/2/3 211/2/3
f 219/2/3 214/2/3 213/2/3
f 220/2/3 214/2/3 219/2/3
f 221/2/3 216/2/3 215/2/3
f 222/2/3 216/2/3 221/2/3
f 223/2/3 218/2/3 217/2/3
f 224/2/3 218/2/3 223/2/3
f 229/2/3 226/2/3 225/2/3
f 230/2/3 226/2/3 229/2/3
f 231/2/3 228/2/3 227/2/3
f 232/2/3 228/2/3 231/2/3
f 239/1/3 238/1/3 237/1/3
f 240/1/3 238/1/3 239/1/3
f 241/2/3 234/2/3 233/2/3
f 242/2/3 234/2/3 241/2/3
f 243/2/3 236/2/3 235/2/3
f 244/2/3 236/2/3 243/2/3
f 249/2/3 248/2/3 247/2/3
f 250/2/3 248/2/3 249/2/3
f 251/2/3 246/2/3 245/2/3
f 252/2/3 246/2/3 251/2/3
f 255/2/3 254/2/3 253/2/3
f 256/2/3 254/2/3 255/2/3
f 261/2/3 260/2/3 259/2/3
f 262/2/3 260/2/3 261/2/3
f 263/2/3 258/2/3 257/2/3
f 264/2/3 258/2/3 263/2/3
f 265/2/4 266/2/4 271/2/4
f 271/2/4 266/2/4 272/2/4
f 267/2/4 268/2/4 273/2/4
f 273/2/4 268/2/4 274/2/4
f 269/2/4 270/2/4 275/2/4
f 275/2/4 270/2/4 276/2/4
f 277/2/4 278/2/4 279/2/4
f 279/2/4 278/2/4 280/2/4
f 281/2/4 282/2/4 283/2/4
f 283/2/4 282/2/4 284/2/4
f 285/2/4 286/2/4 291/2/4
f 291/2/4 286/2/4 292/2/4
f 287/2/4 288/2/4 293/2/4
f 293/2/4 288/2/4 294/2/4
f 289/2/4 290/2/4 295/2/4
f 295/2/4 290/2/4 296/2/4
f 297/2/4 298/2/4 301/2/4
f 301/2/4 298/2/4 302/2/4
f 299/2/4 300/2/4 303/2/4
f 303/2/4 300/2/4 304/2/4
f 305/2/4 306/2/4 311/2/4
f 311/2/4 306/2/4 312/2/4
f 307/2/4 308/2/4 313/2/4
f 313/2/4 308/2/4 314/2/4
f 309/2/4 310/2/4 315/2/4
f 315/2/4 310/2/4 316/2/4
f 319/2/4 320/2/4 321/2/4
f 321/2/4 320/2/4 322/2/4
f 317/2/4 318/2/4 323/2/4
f 323/2/4 318/2/4 324/2/4
f 327/1/4 328/1/4 329/1/4
f 329/1/4 328/1/4 330/1/4
f 325/2/4 326/2/4 331/2/4
f 331/2/4 326/2/4 332/2/4
f 333/2/4 334/2/4 335/2/4
f 335/2/4 334/2/4 336/2/4
f 337/2/4 338/2/4 341/2/4
f 341/2/4 338/2/4 342/2/4
f 339/2/4 340/2/4 343/2/4
f 343/2/4 340/2/4 344/2/4
f 345/2/4 346/2/4 349/2/4
f 345/2/4 349/2/4 351/2/4
f 349/2/4 350/2/4 351/2/4
f 351/2/4 350/2/4 352/2/4
f 347/2/4 348/2/4 353/2/4
f 353/2/4 348/2/4 354/2/4
f 357/1/5 356/1/5 355/1/5
f 358/1/5 356/1/5 357/1/5
f 361/2/5 360/2/5 359/2/5
f 362/2/5 360/2/5 361/2/5
f 365/2/5 364/2/5 363/2/5
f 366/2/5 364/2/5 365/2/5
f 369/2/5 368/2/5 367/2/5
f 370/2/5 368/2/5 369/2/5
f 371/2/5 369/2/5 367/2/5
f 372/2/5 368/2/5 370/2/5
f 373/2/5 371/2/5 367/2/5
f 373/2/5 372/2/5 371/2/5
f 374/2/5 368/2/5 372/2/5
f 374/2/5 372/2/5 373/2/5
f 377/2/5 376/2/5 375/2/5
f 378/2/5 376/2/5 377/2/5
f 381/2/5 380/2/5 379/2/5
f 382/2/5 380/2/5 381/2/5
f 385/2/5 384/2/5 383/2/5
f 386/2/5 384/2/5 385/2/5
f 389/2/5 388/2/5 387/2/5
f 390/2/5 388/2/5 389/2/5
f 393/2/5 392/2/5 391/2/5
f 394/2/5 392/2/5 393/2/5
f 397/2/5 396/2/5 395/2/5
f 398/2/5 396/2/5 397/2/5
f 401/2/5 400/2/5 399/2/5
f 402/2/5 400/2/5 401/2/5
f 405/2/5 404/2/5 403/2/5
f 406/2/5 404/2/5 405/2/5
f 409/2/5 408/2/5 407/2/5
f 410/2/5 408/2/5 409/2/5
f 413/2/5 412/2/5 411/2/5
f 414/2/5 412/2/5 413/2/5
f 417/2/5 416/2/5 415/2/5
f 418/2/5 416/2/5 417/2/5
f 421/2/5 420/2/5 419/2/5
f 422/2/5 420/2/5 421/2/5
f 425/2/5 424/2/5 423/2/5
f 426/2/5 424/2/5 425/2/5
f 429/2/5 428/2/5 427/2/5
f 430/2/5 428/2/5 429/2/5
f 433/2/5 432/2/5 431/2/5
f 434/2/5 432/2/5 433/2/5
f 437/2/5 436/2/5 435/2/5
f 438/2/5 436/2/5 437/2/5
f 441/2/5 440/2/5 439/2/5
f 442/2/5 440/2/5 441/2/5
f 443/1/6 444/1/6 445/1/6
f 445/1/6 444/1/6 446/1/6
f 447/2/6 448/2/6 449/2/6
f 449/2/6 448/2/6 450/2/6
f 451/2/6 452/2/6 453/2/6
f 453/2/6 452/2/6 454/2/6
f 455/2/6 456/2/6 457/2/6
f 457/2/6 456/2/6 458/2/6
f 459/2/6 460/2/6 461/2/6
f 461/2/6 460/2/6 462/2/6
f 459/2/6 461/2/6 463/2/6
f 463/2/6 461/2/6 464/2/6
f 465/2/6 466/2/6 467/2/6
f 467/2/6 466/2/6 468/2/6
f 469/2/6 470/2/6 471/2/6
f 471/2/6 470/2/6 472/2/6
f 473/2/6 474/2/6 475/2/6
f 475/2/6 474/2/6 476/2/6
f 477/2/6 478/2/6 479/2/6
f 479/2/6 478/2/6 480/2/6
f 481/2/6 482/2/6 483/2/6
f 483/2/6 482/2/6 484/2/6
f 485/2/6 486/2/6 487/2/6
f 487/2/6 486/2/6 488/2/6
f 489/2/6 490/2/6 491/2/6
f 491/2/6 490/2/6 492/2/6
f 493/2/6 494/2/6 495/2/6
f 495/2/6 494/2/6 496/2/6
f 497/2/6 498/2/6 499/2/6
f 499/2/6 498/2/6 500/2/6
f 501/2/6 502/2/6 503/2/6
f 503/2/6 502/2/6 504/2/6
f 505/2/6 506/2/6 507/2/6
f 507/2/6 506/2/6 508/2/6
f 509/2/6 510/2/6 511/2/6
f 511/2/6 510/2/6 512/2/6
f 513/2/6 514/2/6 515/2/6
f 515/2/6 514/2/6 516/2/6
f 517/2/6 518/2/6 519/2/6
f 519/2/6 518/2/6 520/2/6
f 521/2/6 522/2/6 523/2/6
f 523/2/6 522/2/6 524/2/6
f 525/2/6 526/2/6 527/2/6
f 527/2/6 526/2/6 528/2/6
f 529/2/6 530/2/6 531/2/6
f 531/2/6 530/2/6 532/2/6
f 533/2/6 534/2/6 535/2/6
f 535/2/6 534/2/6 536/2/6
