# MagicaVoxel @ Ephtracy

# group
o 

# material
mtllib Gold.mtl
usemtl palette

# normals
vn -1 0 0
vn 1 0 0
vn 0 0 1
vn 0 0 -1
vn 0 -1 0
vn 0 1 0

# texcoords
vt 0.970703 0.5
vt 0.974609 0.5

# verts
v 0.9 6.9 -0.4
v 0.9 6.9 -0.7
v 0.9 7 -0.4
v 0.9 7 -0.7
v 0.9 7.1 -0.4
v 0.9 7.1 -0.7
v 0.9 7.2 -0.4
v 0.9 7.2 -0.7
v 0.9 7.3 -0.4
v 0.9 7.3 -0.7
v 0.9 7.4 -0.4
v 0.9 7.4 -0.7
v 0.9 7.5 -0.4
v 0.9 7.5 -0.7
v 0.9 7.6 -0.4
v 0.9 7.6 -0.7
v 0.9 7.7 -0.4
v 0.9 7.7 -0.7
v 0.9 7.8 -0.4
v 0.9 7.8 -0.7
v 4.2 7 -2.5
v 4.2 7 -2.8
v 4.2 7.2 -2.5
v 4.2 7.2 -2.8
v 4.2 7.4 -2.5
v 4.2 7.4 -2.8
v 4.2 7.6 -2.5
v 4.2 7.6 -2.8
v 4.3 6.9 -2.5
v 4.3 6.9 -2.8
v 4.3 7 -2.5
v 4.3 7 -2.8
v 4.3 7.3 -2.5
v 4.3 7.3 -2.8
v 4.3 7.4 -2.5
v 4.3 7.4 -2.8
v 4.3 7.6 -2.5
v 4.3 7.6 -2.8
v 4.3 7.7 -2.5
v 4.3 7.7 -2.8
v 4.4 6.7 -2.5
v 4.4 6.7 -2.8
v 4.4 6.8 -2.5
v 4.4 6.8 -2.8
v 4.4 7.2 -2.5
v 4.4 7.2 -2.8
v 4.4 7.3 -2.5
v 4.4 7.3 -2.8
v 4.4 7.8 -2.5
v 4.4 7.8 -2.8
v 4.4 7.9 -2.5
v 4.4 7.9 -2.8
v 4.5 7.1 -2.5
v 4.5 7.1 -2.8
v 4.5 7.2 -2.5
v 4.5 7.2 -2.8
v 4.6 7 -2.5
v 4.6 7 -2.8
v 4.6 7.1 -2.5
v 4.6 7.1 -2.8
v 4.6 7.4 -2.5
v 4.6 7.4 -2.8
v 4.6 7.6 -2.5
v 4.6 7.6 -2.8
v 1.1 7.1 -0.4
v 1.1 7.1 -0.7
v 1.1 7.2 -0.4
v 1.1 7.2 -0.7
v 1.1 7.5 -0.4
v 1.1 7.5 -0.7
v 1.1 7.6 -0.4
v 1.1 7.6 -0.7
v 1.3 7.3 -0.4
v 1.3 7.3 -0.7
v 1.3 7.4 -0.4
v 1.3 7.4 -0.7
v 1.6 6.9 -0.4
v 1.6 6.9 -0.7
v 1.6 7 -0.4
v 1.6 7 -0.7
v 1.6 7.7 -0.4
v 1.6 7.7 -0.7
v 1.6 7.8 -0.4
v 1.6 7.8 -0.7
v 4.3 7 -2.5
v 4.3 7 -2.8
v 4.3 7.2 -2.5
v 4.3 7.2 -2.8
v 4.3 7.4 -2.5
v 4.3 7.4 -2.8
v 4.3 7.6 -2.5
v 4.3 7.6 -2.8
v 4.4 7.3 -2.5
v 4.4 7.3 -2.8
v 4.4 7.4 -2.5
v 4.4 7.4 -2.8
v 4.5 6.7 -2.5
v 4.5 6.7 -2.8
v 4.5 6.8 -2.5
v 4.5 6.8 -2.8
v 4.5 7.2 -2.5
v 4.5 7.2 -2.8
v 4.5 7.3 -2.5
v 4.5 7.3 -2.8
v 4.5 7.8 -2.5
v 4.5 7.8 -2.8
v 4.5 7.9 -2.5
v 4.5 7.9 -2.8
v 4.6 6.9 -2.5
v 4.6 6.9 -2.8
v 4.6 7 -2.5
v 4.6 7 -2.8
v 4.6 7.1 -2.5
v 4.6 7.1 -2.8
v 4.6 7.2 -2.5
v 4.6 7.2 -2.8
v 4.6 7.6 -2.5
v 4.6 7.6 -2.8
v 4.6 7.7 -2.5
v 4.6 7.7 -2.8
v 4.7 7 -2.5
v 4.7 7 -2.8
v 4.7 7.1 -2.5
v 4.7 7.1 -2.8
v 4.7 7.4 -2.5
v 4.7 7.4 -2.8
v 4.7 7.6 -2.5
v 4.7 7.6 -2.8
v 0.9 6.9 -0.4
v 0.9 7 -0.4
v 0.9 7.1 -0.4
v 0.9 7.2 -0.4
v 0.9 7.3 -0.4
v 0.9 7.4 -0.4
v 0.9 7.5 -0.4
v 0.9 7.6 -0.4
v 0.9 7.7 -0.4
v 0.9 7.8 -0.4
v 1.1 7.1 -0.4
v 1.1 7.2 -0.4
v 1.1 7.5 -0.4
v 1.1 7.6 -0.4
v 1.3 7.3 -0.4
v 1.3 7.4 -0.4
v 1.6 6.9 -0.4
v 1.6 7 -0.4
v 1.6 7.7 -0.4
v 1.6 7.8 -0.4
v 4.2 7 -2.5
v 4.2 7.2 -2.5
v 4.2 7.4 -2.5
v 4.2 7.6 -2.5
v 4.3 6.9 -2.5
v 4.3 7 -2.5
v 4.3 7.2 -2.5
v 4.3 7.3 -2.5
v 4.3 7.4 -2.5
v 4.3 7.6 -2.5
v 4.3 7.7 -2.5
v 4.4 6.7 -2.5
v 4.4 6.8 -2.5
v 4.4 7.2 -2.5
v 4.4 7.3 -2.5
v 4.4 7.4 -2.5
v 4.4 7.8 -2.5
v 4.4 7.9 -2.5
v 4.5 6.7 -2.5
v 4.5 6.8 -2.5
v 4.5 7.1 -2.5
v 4.5 7.2 -2.5
v 4.5 7.3 -2.5
v 4.5 7.8 -2.5
v 4.5 7.9 -2.5
v 4.6 6.9 -2.5
v 4.6 7 -2.5
v 4.6 7.1 -2.5
v 4.6 7.2 -2.5
v 4.6 7.4 -2.5
v 4.6 7.6 -2.5
v 4.6 7.7 -2.5
v 4.7 7 -2.5
v 4.7 7.1 -2.5
v 4.7 7.4 -2.5
v 4.7 7.6 -2.5
v 0.9 6.9 -0.7
v 0.9 7 -0.7
v 0.9 7.1 -0.7
v 0.9 7.2 -0.7
v 0.9 7.3 -0.7
v 0.9 7.4 -0.7
v 0.9 7.5 -0.7
v 0.9 7.6 -0.7
v 0.9 7.7 -0.7
v 0.9 7.8 -0.7
v 1.1 7.1 -0.7
v 1.1 7.2 -0.7
v 1.1 7.5 -0.7
v 1.1 7.6 -0.7
v 1.3 7.3 -0.7
v 1.3 7.4 -0.7
v 1.6 6.9 -0.7
v 1.6 7 -0.7
v 1.6 7.7 -0.7
v 1.6 7.8 -0.7
v 4.2 7 -2.8
v 4.2 7.2 -2.8
v 4.2 7.4 -2.8
v 4.2 7.6 -2.8
v 4.3 6.9 -2.8
v 4.3 7 -2.8
v 4.3 7.2 -2.8
v 4.3 7.3 -2.8
v 4.3 7.4 -2.8
v 4.3 7.6 -2.8
v 4.3 7.7 -2.8
v 4.4 6.7 -2.8
v 4.4 6.8 -2.8
v 4.4 7.2 -2.8
v 4.4 7.3 -2.8
v 4.4 7.4 -2.8
v 4.4 7.8 -2.8
v 4.4 7.9 -2.8
v 4.5 6.7 -2.8
v 4.5 6.8 -2.8
v 4.5 7.1 -2.8
v 4.5 7.2 -2.8
v 4.5 7.3 -2.8
v 4.5 7.8 -2.8
v 4.5 7.9 -2.8
v 4.6 6.9 -2.8
v 4.6 7 -2.8
v 4.6 7.1 -2.8
v 4.6 7.2 -2.8
v 4.6 7.4 -2.8
v 4.6 7.6 -2.8
v 4.6 7.7 -2.8
v 4.7 7 -2.8
v 4.7 7.1 -2.8
v 4.7 7.4 -2.8
v 4.7 7.6 -2.8
v 4.4 6.7 -2.5
v 4.5 6.7 -2.5
v 4.4 6.7 -2.8
v 4.5 6.7 -2.8
v 0.9 6.9 -0.4
v 1.6 6.9 -0.4
v 0.9 6.9 -0.7
v 1.6 6.9 -0.7
v 4.3 6.9 -2.5
v 4.6 6.9 -2.5
v 4.3 6.9 -2.8
v 4.6 6.9 -2.8
v 4.2 7 -2.5
v 4.3 7 -2.5
v 4.6 7 -2.5
v 4.7 7 -2.5
v 4.2 7 -2.8
v 4.3 7 -2.8
v 4.6 7 -2.8
v 4.7 7 -2.8
v 0.9 7.1 -0.4
v 1.1 7.1 -0.4
v 0.9 7.1 -0.7
v 1.1 7.1 -0.7
v 4.5 7.1 -2.5
v 4.6 7.1 -2.5
v 4.5 7.1 -2.8
v 4.6 7.1 -2.8
v 4.4 7.2 -2.5
v 4.5 7.2 -2.5
v 4.4 7.2 -2.8
v 4.5 7.2 -2.8
v 0.9 7.3 -0.4
v 1.3 7.3 -0.4
v 0.9 7.3 -0.7
v 1.3 7.3 -0.7
v 4.3 7.3 -2.5
v 4.4 7.3 -2.5
v 4.3 7.3 -2.8
v 4.4 7.3 -2.8
v 4.2 7.4 -2.5
v 4.3 7.4 -2.5
v 4.6 7.4 -2.5
v 4.7 7.4 -2.5
v 4.2 7.4 -2.8
v 4.3 7.4 -2.8
v 4.6 7.4 -2.8
v 4.7 7.4 -2.8
v 0.9 7.5 -0.4
v 1.1 7.5 -0.4
v 0.9 7.5 -0.7
v 1.1 7.5 -0.7
v 4.3 7.6 -2.5
v 4.6 7.6 -2.5
v 4.3 7.6 -2.8
v 4.6 7.6 -2.8
v 0.9 7.7 -0.4
v 1.6 7.7 -0.4
v 0.9 7.7 -0.7
v 1.6 7.7 -0.7
v 4.4 7.8 -2.5
v 4.5 7.8 -2.5
v 4.4 7.8 -2.8
v 4.5 7.8 -2.8
v 4.4 6.8 -2.5
v 4.5 6.8 -2.5
v 4.4 6.8 -2.8
v 4.5 6.8 -2.8
v 0.9 7 -0.4
v 1.6 7 -0.4
v 0.9 7 -0.7
v 1.6 7 -0.7
v 4.3 7 -2.5
v 4.6 7 -2.5
v 4.3 7 -2.8
v 4.6 7 -2.8
v 4.6 7.1 -2.5
v 4.7 7.1 -2.5
v 4.6 7.1 -2.8
v 4.7 7.1 -2.8
v 0.9 7.2 -0.4
v 1.1 7.2 -0.4
v 0.9 7.2 -0.7
v 1.1 7.2 -0.7
v 4.2 7.2 -2.5
v 4.3 7.2 -2.5
v 4.5 7.2 -2.5
v 4.6 7.2 -2.5
v 4.2 7.2 -2.8
v 4.3 7.2 -2.8
v 4.5 7.2 -2.8
v 4.6 7.2 -2.8
v 4.4 7.3 -2.5
v 4.5 7.3 -2.5
v 4.4 7.3 -2.8
v 4.5 7.3 -2.8
v 0.9 7.4 -0.4
v 1.3 7.4 -0.4
v 0.9 7.4 -0.7
v 1.3 7.4 -0.7
v 4.3 7.4 -2.5
v 4.4 7.4 -2.5
v 4.3 7.4 -2.8
v 4.4 7.4 -2.8
v 0.9 7.6 -0.4
v 1.1 7.6 -0.4
v 0.9 7.6 -0.7
v 1.1 7.6 -0.7
v 4.2 7.6 -2.5
v 4.3 7.6 -2.5
v 4.6 7.6 -2.5
v 4.7 7.6 -2.5
v 4.2 7.6 -2.8
v 4.3 7.6 -2.8
v 4.6 7.6 -2.8
v 4.7 7.6 -2.8
v 4.3 7.7 -2.5
v 4.6 7.7 -2.5
v 4.3 7.7 -2.8
v 4.6 7.7 -2.8
v 0.9 7.8 -0.4
v 1.6 7.8 -0.4
v 0.9 7.8 -0.7
v 1.6 7.8 -0.7
v 4.4 7.9 -2.5
v 4.5 7.9 -2.5
v 4.4 7.9 -2.8
v 4.5 7.9 -2.8

# faces
f 3/1/1 2/1/1 1/1/1
f 4/1/1 2/1/1 3/1/1
f 7/1/1 6/1/1 5/1/1
f 8/1/1 6/1/1 7/1/1
f 11/1/1 10/1/1 9/1/1
f 12/1/1 10/1/1 11/1/1
f 15/1/1 14/1/1 13/1/1
f 16/1/1 14/1/1 15/1/1
f 19/1/1 18/1/1 17/1/1
f 20/1/1 18/1/1 19/1/1
f 23/2/1 22/2/1 21/2/1
f 24/2/1 22/2/1 23/2/1
f 27/2/1 26/2/1 25/2/1
f 28/2/1 26/2/1 27/2/1
f 31/2/1 30/2/1 29/2/1
f 32/2/1 30/2/1 31/2/1
f 35/2/1 34/2/1 33/2/1
f 36/2/1 34/2/1 35/2/1
f 39/2/1 38/2/1 37/2/1
f 40/2/1 38/2/1 39/2/1
f 43/2/1 42/2/1 41/2/1
f 44/2/1 42/2/1 43/2/1
f 47/2/1 46/2/1 45/2/1
f 48/2/1 46/2/1 47/2/1
f 51/2/1 50/2/1 49/2/1
f 52/2/1 50/2/1 51/2/1
f 55/2/1 54/2/1 53/2/1
f 56/2/1 54/2/1 55/2/1
f 59/2/1 58/2/1 57/2/1
f 60/2/1 58/2/1 59/2/1
f 63/2/1 62/2/1 61/2/1
f 64/2/1 62/2/1 63/2/1
f 65/1/2 66/1/2 67/1/2
f 67/1/2 66/1/2 68/1/2
f 69/1/2 70/1/2 71/1/2
f 71/1/2 70/1/2 72/1/2
f 73/1/2 74/1/2 75/1/2
f 75/1/2 74/1/2 76/1/2
f 77/1/2 78/1/2 79/1/2
f 79/1/2 78/1/2 80/1/2
f 81/1/2 82/1/2 83/1/2
f 83/1/2 82/1/2 84/1/2
f 85/2/2 86/2/2 87/2/2
f 87/2/2 86/2/2 88/2/2
f 89/2/2 90/2/2 91/2/2
f 91/2/2 90/2/2 92/2/2
f 93/2/2 94/2/2 95/2/2
f 95/2/2 94/2/2 96/2/2
f 97/2/2 98/2/2 99/2/2
f 99/2/2 98/2/2 100/2/2
f 101/2/2 102/2/2 103/2/2
f 103/2/2 102/2/2 104/2/2
f 105/2/2 106/2/2 107/2/2
f 107/2/2 106/2/2 108/2/2
f 109/2/2 110/2/2 111/2/2
f 111/2/2 110/2/2 112/2/2
f 113/2/2 114/2/2 115/2/2
f 115/2/2 114/2/2 116/2/2
f 117/2/2 118/2/2 119/2/2
f 119/2/2 118/2/2 120/2/2
f 121/2/2 122/2/2 123/2/2
f 123/2/2 122/2/2 124/2/2
f 125/2/2 126/2/2 127/2/2
f 127/2/2 126/2/2 128/2/2
f 139/1/3 132/1/3 131/1/3
f 140/1/3 132/1/3 139/1/3
f 141/1/3 136/1/3 135/1/3
f 142/1/3 136/1/3 141/1/3
f 143/1/3 134/1/3 133/1/3
f 144/1/3 134/1/3 143/1/3
f 145/1/3 130/1/3 129/1/3
f 146/1/3 130/1/3 145/1/3
f 147/1/3 138/1/3 137/1/3
f 148/1/3 138/1/3 147/1/3
f 154/2/3 150/2/3 149/2/3
f 155/2/3 150/2/3 154/2/3
f 157/2/3 152/2/3 151/2/3
f 158/2/3 152/2/3 157/2/3
f 163/2/3 157/2/3 156/2/3
f 164/2/3 157/2/3 163/2/3
f 167/2/3 161/2/3 160/2/3
f 168/2/3 161/2/3 167/2/3
f 170/2/3 163/2/3 162/2/3
f 171/2/3 163/2/3 170/2/3
f 172/2/3 166/2/3 165/2/3
f 173/2/3 166/2/3 172/2/3
f 174/2/3 154/2/3 153/2/3
f 175/2/3 154/2/3 174/2/3
f 176/2/3 170/2/3 169/2/3
f 177/2/3 170/2/3 176/2/3
f 179/2/3 159/2/3 158/2/3
f 180/2/3 159/2/3 179/2/3
f 181/2/3 176/2/3 175/2/3
f 182/2/3 176/2/3 181/2/3
f 183/2/3 179/2/3 178/2/3
f 184/2/3 179/2/3 183/2/3
f 187/1/4 188/1/4 195/1/4
f 195/1/4 188/1/4 196/1/4
f 191/1/4 192/1/4 197/1/4
f 197/1/4 192/1/4 198/1/4
f 189/1/4 190/1/4 199/1/4
f 199/1/4 190/1/4 200/1/4
f 185/1/4 186/1/4 201/1/4
f 201/1/4 186/1/4 202/1/4
f 193/1/4 194/1/4 203/1/4
f 203/1/4 194/1/4 204/1/4
f 205/2/4 206/2/4 210/2/4
f 210/2/4 206/2/4 211/2/4
f 207/2/4 208/2/4 213/2/4
f 213/2/4 208/2/4 214/2/4
f 212/2/4 213/2/4 219/2/4
f 219/2/4 213/2/4 220/2/4
f 216/2/4 217/2/4 223/2/4
f 223/2/4 217/2/4 224/2/4
f 218/2/4 219/2/4 226/2/4
f 226/2/4 219/2/4 227/2/4
f 221/2/4 222/2/4 228/2/4
f 228/2/4 222/2/4 229/2/4
f 209/2/4 210/2/4 230/2/4
f 230/2/4 210/2/4 231/2/4
f 225/2/4 226/2/4 232/2/4
f 232/2/4 226/2/4 233/2/4
f 214/2/4 215/2/4 235/2/4
f 235/2/4 215/2/4 236/2/4
f 231/2/4 232/2/4 237/2/4
f 237/2/4 232/2/4 238/2/4
f 234/2/4 235/2/4 239/2/4
f 239/2/4 235/2/4 240/2/4
f 243/2/5 242/2/5 241/2/5
f 244/2/5 242/2/5 243/2/5
f 247/1/5 246/1/5 245/1/5
f 248/1/5 246/1/5 247/1/5
f 251/2/5 250/2/5 249/2/5
f 252/2/5 250/2/5 251/2/5
f 257/2/5 254/2/5 253/2/5
f 258/2/5 254/2/5 257/2/5
f 259/2/5 256/2/5 255/2/5
f 260/2/5 256/2/5 259/2/5
f 263/1/5 262/1/5 261/1/5
f 264/1/5 262/1/5 263/1/5
f 267/2/5 266/2/5 265/2/5
f 268/2/5 266/2/5 267/2/5
f 271/2/5 270/2/5 269/2/5
f 272/2/5 270/2/5 271/2/5
f 275/1/5 274/1/5 273/1/5
f 276/1/5 274/1/5 275/1/5
f 279/2/5 278/2/5 277/2/5
f 280/2/5 278/2/5 279/2/5
f 285/2/5 282/2/5 281/2/5
f 286/2/5 282/2/5 285/2/5
f 287/2/5 284/2/5 283/2/5
f 288/2/5 284/2/5 287/2/5
f 291/1/5 290/1/5 289/1/5
f 292/1/5 290/1/5 291/1/5
f 295/2/5 294/2/5 293/2/5
f 296/2/5 294/2/5 295/2/5
f 299/1/5 298/1/5 297/1/5
f 300/1/5 298/1/5 299/1/5
f 303/2/5 302/2/5 301/2/5
f 304/2/5 302/2/5 303/2/5
f 305/2/6 306/2/6 307/2/6
f 307/2/6 306/2/6 308/2/6
f 309/1/6 310/1/6 311/1/6
f 311/1/6 310/1/6 312/1/6
f 313/2/6 314/2/6 315/2/6
f 315/2/6 314/2/6 316/2/6
f 317/2/6 318/2/6 319/2/6
f 319/2/6 318/2/6 320/2/6
f 321/1/6 322/1/6 323/1/6
f 323/1/6 322/1/6 324/1/6
f 325/2/6 326/2/6 329/2/6
f 329/2/6 326/2/6 330/2/6
f 327/2/6 328/2/6 331/2/6
f 331/2/6 328/2/6 332/2/6
f 333/2/6 334/2/6 335/2/6
f 335/2/6 334/2/6 336/2/6
f 337/1/6 338/1/6 339/1/6
f 339/1/6 338/1/6 340/1/6
f 341/2/6 342/2/6 343/2/6
f 343/2/6 342/2/6 344/2/6
f 345/1/6 346/1/6 347/1/6
f 347/1/6 346/1/6 348/1/6
f 349/2/6 350/2/6 353/2/6
f 353/2/6 350/2/6 354/2/6
f 351/2/6 352/2/6 355/2/6
f 355/2/6 352/2/6 356/2/6
f 357/2/6 358/2/6 359/2/6
f 359/2/6 358/2/6 360/2/6
f 361/1/6 362/1/6 363/1/6
f 363/1/6 362/1/6 364/1/6
f 365/2/6 366/2/6 367/2/6
f 367/2/6 366/2/6 368/2/6
